# xmcd
#
# Track frame offsets:
#   150
#   22202
#   38210
#   67750
#   90747
#   110779
#   126525
#   142725
#   163300
#   192198
#   213835
#   235985
#   255549
#   272072
#   287608
#   306529
#
# Disc length: 4308 seconds
#
# Revision: 0
# Processed by: cddbd v1.5PL3 Copyright (c) Steve Scherf et al.
# Submitted via: Media_Universe 3.0
#
DISCID=f210d210
DTITLE=The Eagles - The Very Best Of
DYEAR=1900
DGENRE=Pop
TTITLE0=One of these nights
TTITLE1=Take it easy
TTITLE2=Hotel California
TTITLE3=New kid in town
TTITLE4=Heartache tonight
TTITLE5=Tequila sunrise
TTITLE6=Desperado
TTITLE7=Best of my love
TTITLE8=Lyin' eyes
TTITLE9=Take it to the limit
TTITLE10=I can't tell you why
TTITLE11=Peaceful easy feelin'
TTITLE12=james Dean
TTITLE13=Doolin Dalton
TTITLE14=Witchy woman
TTITLE15=The long run
EXTD=
EXTT0=
EXTT1=
EXTT2=
EXTT3=
EXTT4=
EXTT5=
EXTT6=
EXTT7=
EXTT8=
EXTT9=
EXTT10=
EXTT11=
EXTT12=
EXTT13=
EXTT14=
EXTT15=
PLAYORDER=
